<svg width="753" height="248" viewBox="0 0 753 248" fill="none" xmlns="http://www.w3.org/2000/svg">
<path d="M182.428 0H43.6396H0.139648V66H43.6396H116.529L149.478 33L182.428 0Z" fill="#010101"/>
<path d="M0 199.882L199.882 5.01927e-05L246.551 46.6691L46.669 246.551L0 199.882Z" fill="#010101"/>
<path d="M554.589 200.41L578.524 176.474L705.999 49.0001L752.668 95.6691L661.14 187.197L601.258 247.079L554.589 200.41Z" fill="#010101"/>
<rect x="213.64" y="178.806" width="233.071" height="66" transform="rotate(-45 213.64 178.806)" fill="#010101"/>
<rect x="309.64" y="196.224" width="215.277" height="66" transform="rotate(-45 309.64 196.224)" fill="#010101"/>
<rect x="308.309" width="283.383" height="66" transform="rotate(45 308.309 0)" fill="#010101"/>
<path d="M602.64 0H522.64V33H702.64L735.64 0H602.64Z" fill="#010101"/>
<path d="M684.64 49H523.64V115H618.64L684.64 49Z" fill="#010101"/>
</svg>
